<svg id="Livello_2" data-name="Livello 2" xmlns="http://www.w3.org/2000/svg" viewBox="0 0 224.88 150"><defs><style>.cls-1{fill:#fff;}</style></defs><title>logo</title><path class="cls-1" d="M175.63,66.74a8.29,8.29,0,0,1,7.48,7.48h15.42A23.65,23.65,0,0,0,175.63,51.4Z"/><path class="cls-1" d="M166.6,74.23a8.29,8.29,0,0,1,7.48-7.48V51.4a23.65,23.65,0,0,0-22.91,22.83Z"/><path class="cls-1" d="M174.08,83.26a8.29,8.29,0,0,1-7.48-7.48H151.17A23.65,23.65,0,0,0,174.08,98.6Z"/><path class="cls-1" d="M183.11,75.77a8.29,8.29,0,0,1-7.48,7.48V98.6a23.65,23.65,0,0,0,22.91-22.83Z"/><rect class="cls-1" x="151.17" y="75.78" width="15.41" height="46.83"/><path class="cls-1" d="M33.67,74.23a8.29,8.29,0,0,1,7.48-7.48V51.4A23.65,23.65,0,0,0,18.25,74.23Z"/><path class="cls-1" d="M41.16,83.26a8.29,8.29,0,0,1-7.48-7.48H18.25A23.65,23.65,0,0,0,41.16,98.6Z"/><path class="cls-1" d="M50.19,75.77a8.29,8.29,0,0,1-7.48,7.48V98.6A23.65,23.65,0,0,0,65.61,75.77Z"/><path class="cls-1" d="M65.59,74V27.38H50.19V52.89a23.64,23.64,0,0,0-7.48-1.49V66.74a8.29,8.29,0,0,1,7.48,7.48H65.61C65.61,74.15,65.6,74.08,65.59,74Z"/><path class="cls-1" d="M119.25,74.23a8.29,8.29,0,0,1,7.48-7.48V51.32a23.65,23.65,0,0,0-22.83,22.91Z"/><path class="cls-1" d="M135.77,75.78a8.29,8.29,0,0,1-7.48,7.48V98.68a23.65,23.65,0,0,0,22.83-22.91Z"/><path class="cls-1" d="M128.29,66.75a8.29,8.29,0,0,1,7.48,7.48h15.34a23.65,23.65,0,0,0-22.83-22.91Z"/><path class="cls-1" d="M111.36,92.25a23.47,23.47,0,0,0,15.38,6.43V83.26a8.25,8.25,0,0,1-4.52-1.87L135,68.58l-1.09-1.09L110.24,91.19l1.09,1.09Z"/><path class="cls-1" d="M97.49,75.78A8.29,8.29,0,0,1,90,83.26V98.68a23.65,23.65,0,0,0,22.83-22.91Z"/><path class="cls-1" d="M81,74.23a8.29,8.29,0,0,1,7.48-7.48V51.32A23.65,23.65,0,0,0,65.64,74.23Z"/><path class="cls-1" d="M88.46,83.26A8.29,8.29,0,0,1,81,75.78H65.64A23.65,23.65,0,0,0,88.46,98.68Z"/><path class="cls-1" d="M105.39,57.75A23.47,23.47,0,0,0,90,51.32V66.75a8.25,8.25,0,0,1,4.52,1.87L81.71,81.43l1.09,1.09,23.71-23.71-1.09-1.09Z"/></svg>